<svg xmlns="http://www.w3.org/2000/svg" width="1440" height="560" preserveAspectRatio="none">
  <defs/>
  <g fill="none" stroke="rgba(255,255,255,0.5)" stroke-width="2">
    <path d="M333 588c108-4 195-181 394-181s197 70 394 70 294-70 394-70"/>
    <path d="M313 615c122-5 216-214 438-214 223-1 220 70 439 70s327-70 438-70"/>
    <path d="M460 585c193-24 307-462 625-463 317-1 457 231 624 235"/>
    <path d="M803 639c120-10 178-243 406-256 229-12 297-164 407-168"/>
    <path d="M488 624c158-21 251-388 507-388s365 245 507 252"/>
  </g>
</svg>
